{
  "accessors": [
    {
      "bufferView": 3,
      "componentType": 5126,
      "count": 17784,
      "max": [
        1.3505927324295044,
        5.142661094665527,
        0.6723580956459045
      ],
      "min": [
        -2.5515971183776855,
        -0.4712906777858734,
        -0.7909643054008484
      ],
      "type": "VEC3"
    },
    {
      "bufferView": 3,
      "byteOffset": 213408,
      "componentType": 5126,
      "count": 17784,
      "max": [
        1.0,
        1.0,
        1.0
      ],
      "min": [
        -1.0,
        -1.0,
        -1.0
      ],
      "type": "VEC3"
    },
    {
      "bufferView": 4,
      "componentType": 5126,
      "count": 17784,
      "max": [
        1.0,
        1.0,
        1.0,
        1.0
      ],
      "min": [
        -1.0,
        -1.0,
        -1.0,
        -1.0
      ],
      "type": "VEC4"
    },
    {
      "bufferView": 2,
      "componentType": 5126,
      "count": 17784,
      "max": [
        0.99609375,
        0.9945755004882813
      ],
      "min": [
        0.0038700103759765625,
        0.00390625
      ],
      "type": "VEC2"
    },
    {
      "bufferView": 1,
      "componentType": 5125,
      "count": 72378,
      "type": "SCALAR"
    },
    {
      "bufferView": 3,
      "byteOffset": 426816,
      "componentType": 5126,
      "count": 1441,
      "max": [
        0.929003894329071,
        2.8512096405029297,
        0.0909491628408432
      ],
      "min": [
        -1.5756586790084839,
        1.1053125858306885,
        -0.5636811256408691
      ],
      "type": "VEC3"
    },
    {
      "bufferView": 3,
      "byteOffset": 444108,
      "componentType": 5126,
      "count": 1441,
      "max": [
        0.9992259740829468,
        0.888176441192627,
        0.9979872107505798
      ],
      "min": [
        -0.994599461555481,
        -0.887435793876648,
        -0.9997209310531616
      ],
      "type": "VEC3"
    },
    {
      "bufferView": 2,
      "byteOffset": 142272,
      "componentType": 5126,
      "count": 1441,
      "max": [
        1.0,
        0.999969482421875
      ],
      "min": [
        3.0517578125e-05,
        -3.0390625
      ],
      "type": "VEC2"
    },
    {
      "bufferView": 1,
      "byteOffset": 289512,
      "componentType": 5125,
      "count": 7098,
      "type": "SCALAR"
    },
    {
      "bufferView": 5,
      "componentType": 5126,
      "count": 24,
      "max": [
        100.0,
        0.004130649380385876,
        0.0,
        0.0,
        1.0,
        100.0,
        0.1585780829191208,
        0.0,
        0.2502315938472748,
        0.0,
        100.0,
        0.0,
        3.359123454535314e-38,
        0.3333985507488251,
        0.43252846598625183,
        1.0
      ],
      "min": [
        -0.40256059169769287,
        -0.11338712275028229,
        -1.0,
        0.0,
        0.0,
        -0.0440836139023304,
        -0.4132823050022125,
        0.0,
        -0.04786377400159836,
        -1.0000001192092896,
        -3.702661842908128e-06,
        0.0,
        -4.274851322174072,
        -0.523218035697937,
        -0.7920211553573608,
        1.0
      ],
      "type": "MAT4"
    },
    {
      "bufferView": 0,
      "componentType": 5123,
      "count": 17784,
      "type": "VEC4"
    },
    {
      "bufferView": 4,
      "byteOffset": 284544,
      "componentType": 5126,
      "count": 17784,
      "max": [
        1.0,
        0.0,
        0.0,
        0.0
      ],
      "min": [
        1.0,
        0.0,
        0.0,
        0.0
      ],
      "type": "VEC4"
    },
    {
      "bufferView": 0,
      "byteOffset": 142272,
      "componentType": 5123,
      "count": 1441,
      "type": "VEC4"
    },
    {
      "bufferView": 4,
      "byteOffset": 569088,
      "componentType": 5126,
      "count": 1441,
      "max": [
        1.0,
        0.0,
        0.0,
        0.0
      ],
      "min": [
        1.0,
        0.0,
        0.0,
        0.0
      ],
      "type": "VEC4"
    }
  ],
  "asset": {
    "extras": {
      "author": "MG Rips (https://sketchfab.com/MG_GameRips)",
      "license": "CC-BY-NC-4.0 (http://creativecommons.org/licenses/by-nc/4.0/)",
      "source": "https://sketchfab.com/3d-models/poppy-playtime-chapter-4-omni-hand-0c97eeb6662c4ff781436e418036ebc3",
      "title": "Poppy Playtime (Chapter 4) - Omni Hand"
    },
    "generator": "Sketchfab-16.59.0",
    "version": "2.0"
  },
  "bufferViews": [
    {
      "buffer": 0,
      "byteLength": 153800,
      "byteStride": 8,
      "name": "shortBufferViews",
      "target": 34962
    },
    {
      "buffer": 0,
      "byteLength": 317904,
      "byteOffset": 153800,
      "name": "floatBufferViews",
      "target": 34963
    },
    {
      "buffer": 0,
      "byteLength": 153800,
      "byteOffset": 471704,
      "byteStride": 8,
      "name": "floatBufferViews",
      "target": 34962
    },
    {
      "buffer": 0,
      "byteLength": 461400,
      "byteOffset": 625504,
      "byteStride": 12,
      "name": "floatBufferViews",
      "target": 34962
    },
    {
      "buffer": 0,
      "byteLength": 592144,
      "byteOffset": 1086904,
      "byteStride": 16,
      "name": "floatBufferViews",
      "target": 34962
    },
    {
      "buffer": 0,
      "byteLength": 1536,
      "byteOffset": 1679048,
      "name": "floatBufferViews"
    }
  ],
  "buffers": [
    {
      "byteLength": 1680584,
      "uri": "scene.bin"
    }
  ],
  "images": [
    {
      "uri": "textures/OmniHandMat_baseColor.png"
    },
    {
      "uri": "textures/OmniHandMat_metallicRoughness.png"
    },
    {
      "uri": "textures/OmniHandMat_normal.png"
    }
  ],
  "materials": [
    {
      "doubleSided": true,
      "name": "OmniHandMat",
      "normalTexture": {
        "index": 2
      },
      "pbrMetallicRoughness": {
        "baseColorTexture": {
          "index": 0
        },
        "metallicRoughnessTexture": {
          "index": 1
        }
      }
    },
    {
      "doubleSided": true,
      "emissiveFactor": [
        0.11953699999999991,
        0.7991039999999999,
        0.7605249999999997
      ],
      "name": "GlowMat",
      "pbrMetallicRoughness": {
        "baseColorFactor": [
          0.024367100000000003,
          0.13526800000000003,
          0.129183,
          1.0
        ],
        "metallicFactor": 0.0
      }
    }
  ],
  "meshes": [
    {
      "name": "OmniHandMesh_OmniHandMat_0",
      "primitives": [
        {
          "attributes": {
            "JOINTS_0": 10,
            "NORMAL": 1,
            "POSITION": 0,
            "TANGENT": 2,
            "TEXCOORD_0": 3,
            "TEXCOORD_1": 3,
            "TEXCOORD_2": 3,
            "WEIGHTS_0": 11
          },
          "indices": 4,
          "material": 0,
          "mode": 4
        }
      ]
    },
    {
      "name": "OmniHandMesh_GlowMat_0",
      "primitives": [
        {
          "attributes": {
            "JOINTS_0": 12,
            "NORMAL": 6,
            "POSITION": 5,
            "TEXCOORD_0": 7,
            "WEIGHTS_0": 13
          },
          "indices": 8,
          "material": 1,
          "mode": 4
        }
      ]
    }
  ],
  "nodes": [
    {
      "children": [
        1
      ],
      "matrix": [
        1.0,
        0.0,
        0.0,
        0.0,
        0.0,
        2.220446049250313e-16,
        -1.0,
        0.0,
        0.0,
        1.0,
        2.220446049250313e-16,
        0.0,
        0.0,
        0.0,
        0.0,
        1.0
      ],
      "name": "Sketchfab_model"
    },
    {
      "children": [
        2
      ],
      "matrix": [
        0.009999999776482582,
        0.0,
        0.0,
        0.0,
        0.0,
        0.0,
        0.009999999776482582,
        0.0,
        0.0,
        -0.009999999776482582,
        0.0,
        0.0,
        0.0,
        0.0,
        0.0,
        1.0
      ],
      "name": "77845b72bd5643b3b6e8db654567b7e7.fbx"
    },
    {
      "children": [
        3
      ],
      "name": "RootNode"
    },
    {
      "children": [
        4
      ],
      "matrix": [
        100.0,
        0.0,
        0.0,
        0.0,
        0.0,
        -1.629206793918314e-05,
        -99.99999999999868,
        0.0,
        0.0,
        99.99999999999868,
        -1.629206793918314e-05,
        0.0,
        0.0,
        0.0,
        0.0,
        1.0
      ],
      "name": "OmniHand"
    },
    {
      "children": [
        5,
        30,
        31,
        29
      ],
      "name": "Object_4"
    },
    {
      "children": [
        6
      ],
      "name": "_rootJoint"
    },
    {
      "children": [
        7,
        28
      ],
      "name": "hand_launcher_00",
      "rotation": [
        0.7071065902709961,
        -8.659559279937574e-17,
        -8.659557294704104e-17,
        0.7071069478988647
      ],
      "translation": [
        1.1504686304436421e-15,
        0.0,
        0.0
      ]
    },
    {
      "children": [
        8
      ],
      "name": "MISC_01",
      "rotation": [
        5.293955920339377e-23,
        -3.4512664603419266e-31,
        -1.1754943508222875e-38,
        1.0
      ],
      "translation": [
        0.0,
        -4.203895392974451e-45,
        0.0
      ]
    },
    {
      "children": [
        9,
        12,
        16,
        20,
        24
      ],
      "name": "Hand_L_02",
      "rotation": [
        0.49999991059303284,
        0.5000001192092896,
        -0.5000000596046448,
        -0.4999999403953552
      ],
      "scale": [
        1.0,
        0.9999999403953552,
        1.0
      ],
      "translation": [
        -1.1504686304436421e-15,
        -1.1210387714598537e-44,
        -3.923635700109488e-44
      ]
    },
    {
      "children": [
        10
      ],
      "name": "ThumbB_L_03",
      "rotation": [
        0.026664936915040016,
        -0.20973184704780579,
        -0.12327208369970322,
        0.9695903658866882
      ],
      "scale": [
        1.0,
        1.0000001192092896,
        1.0
      ],
      "translation": [
        1.8877757787704468,
        -0.08829677104949951,
        1.7265524864196777
      ]
    },
    {
      "children": [
        11
      ],
      "name": "ThumbT_L_04",
      "rotation": [
        -7.422569296977599e-07,
        3.09771444051421e-08,
        0.012320688925683498,
        0.9999241232872009
      ],
      "scale": [
        1.0,
        0.9999999403953552,
        0.9999999403953552
      ],
      "translation": [
        0.6097612977027893,
        -5.364418029785156e-07,
        -9.76730945012605e-08
      ]
    },
    {
      "name": "ThumbH_L_05",
      "rotation": [
        -2.0852585294051096e-06,
        -1.6641487832202984e-07,
        -1.605600118637085e-06,
        1.0
      ],
      "translation": [
        0.8732699155807495,
        -1.6242265701293945e-06,
        7.971038940013386e-09
      ]
    },
    {
      "children": [
        13
      ],
      "name": "MiddleB_L_06",
      "rotation": [
        0.000394887407310307,
        -0.0314025804400444,
        -0.012562789022922516,
        0.9994277954101563
      ],
      "scale": [
        0.9999999403953552,
        1.0000001192092896,
        1.0
      ],
      "translation": [
        3.032583713531494,
        -0.06917470693588257,
        0.33362799882888794
      ]
    },
    {
      "children": [
        14
      ],
      "name": "MiddleM_L_07",
      "rotation": [
        -3.8943142044445267e-07,
        1.208524480489359e-07,
        0.01683265157043934,
        0.9998583197593689
      ],
      "translation": [
        0.5636592507362366,
        1.051172148436308e-06,
        7.219939845981571e-08
      ]
    },
    {
      "children": [
        15
      ],
      "name": "MiddleT_L_08",
      "rotation": [
        -1.4126769087852153e-07,
        -2.326692793985785e-07,
        -0.014789950102567673,
        0.9998906254768372
      ],
      "translation": [
        0.6631590723991394,
        6.602203939110041e-08,
        2.9310209015420696e-07
      ]
    },
    {
      "name": "MiddleH_L_09",
      "rotation": [
        2.979861619678559e-07,
        -1.1609695604875014e-07,
        4.708787400886649e-06,
        1.0
      ],
      "scale": [
        0.9999999403953552,
        0.9999999403953552,
        0.9999999403953552
      ],
      "translation": [
        0.8710091710090637,
        4.751025699079037e-06,
        -1.0703253394694912e-08
      ]
    },
    {
      "children": [
        17
      ],
      "name": "RingB_L_010",
      "rotation": [
        -0.0010339810978621244,
        0.04923265054821968,
        -0.02097860351204872,
        0.9985665678977966
      ],
      "scale": [
        0.9999998807907104,
        1.0,
        1.0
      ],
      "translation": [
        2.9945783615112305,
        -0.06729918718338013,
        -0.3560399115085602
      ]
    },
    {
      "children": [
        18
      ],
      "name": "RingM_L_011",
      "rotation": [
        -2.1712326088163536e-06,
        -5.8467357177960366e-08,
        0.012219153344631195,
        0.999925434589386
      ],
      "scale": [
        1.0,
        1.0,
        1.0000001192092896
      ],
      "translation": [
        0.4548494815826416,
        1.2773089110851288e-06,
        -1.4191853381362307e-07
      ]
    },
    {
      "children": [
        19
      ],
      "name": "RingT_L_012",
      "rotation": [
        6.775087967980653e-05,
        1.9169622191839153e-06,
        0.030944088473916054,
        0.9995211362838745
      ],
      "translation": [
        0.5356107354164124,
        -6.111804395914078e-08,
        2.153413163341611e-07
      ]
    },
    {
      "name": "RingH_L_013",
      "rotation": [
        5.291331035550684e-07,
        -1.372734459437197e-08,
        -2.324850356671959e-06,
        1.0
      ],
      "scale": [
        1.0,
        0.9999999403953552,
        1.0
      ],
      "translation": [
        0.7530022263526917,
        -1.2121163308620453e-06,
        -2.9700458981096745e-07
      ]
    },
    {
      "children": [
        21
      ],
      "name": "PinkyB_L_014",
      "rotation": [
        0.05149110406637192,
        0.081203892827034,
        -0.029202330857515335,
        0.9949381947517395
      ],
      "translation": [
        2.9194138050079346,
        -0.0649482011795044,
        -0.916257917881012
      ]
    },
    {
      "children": [
        22
      ],
      "name": "PinkyM_L_015",
      "rotation": [
        1.7671847274414176e-07,
        -4.936010356004772e-08,
        2.5629999527154723e-06,
        1.0
      ],
      "scale": [
        0.9999999403953552,
        0.9999999403953552,
        0.9999999403953552
      ],
      "translation": [
        0.3819578289985657,
        -0.010519452393054962,
        -0.00021338369697332382
      ]
    },
    {
      "children": [
        23
      ],
      "name": "PinkyT_L_016",
      "rotation": [
        -3.554952598960881e-08,
        -3.694819383781578e-08,
        0.04908537119626999,
        0.9987946152687073
      ],
      "scale": [
        1.0,
        1.0,
        0.9999999403953552
      ],
      "translation": [
        0.44797927141189575,
        0.015800295397639275,
        -0.002917325124144554
      ]
    },
    {
      "name": "PinkyH_L_017",
      "rotation": [
        -3.739260137081146e-07,
        -1.6274861991405487e-07,
        2.32551246881485e-06,
        1.0
      ],
      "translation": [
        0.6021984219551086,
        3.121793270111084e-06,
        2.5890767574310303e-07
      ]
    },
    {
      "children": [
        25
      ],
      "name": "IndexB_L_018",
      "rotation": [
        0.004765350837260485,
        -0.10247527062892914,
        -0.04620521515607834,
        0.9936504364013672
      ],
      "translation": [
        2.916769027709961,
        -0.025985242798924446,
        1.0689282417297363
      ]
    },
    {
      "children": [
        26
      ],
      "name": "IndexM_L_019",
      "rotation": [
        -7.15726400812855e-07,
        -9.385584753829335e-09,
        0.039444904774427414,
        0.9992217421531677
      ],
      "translation": [
        0.5142541527748108,
        -5.606561899185181e-07,
        8.679641609887767e-07
      ]
    },
    {
      "children": [
        27
      ],
      "name": "IndexT_L_020",
      "rotation": [
        3.944686284285126e-07,
        -1.4456118435646204e-07,
        -0.0035150267649441957,
        0.9999939203262329
      ],
      "scale": [
        0.9999999403953552,
        0.9999999403953552,
        1.0
      ],
      "translation": [
        0.6023468971252441,
        2.0852312445640564e-06,
        1.5829294852665043e-07
      ]
    },
    {
      "name": "IndexH_L_021",
      "rotation": [
        4.2167158653683146e-11,
        -1.3820687649879204e-11,
        -3.346940502524376e-10,
        1.0
      ],
      "translation": [
        0.7922905683517456,
        3.6330893635749817e-06,
        -7.856507977521687e-08
      ]
    },
    {
      "name": "Hand_L_GRP_022",
      "rotation": [
        0.49999991059303284,
        0.5000001192092896,
        -0.5000000596046448,
        -0.4999999403953552
      ],
      "scale": [
        1.0,
        0.9999999403953552,
        1.0
      ],
      "translation": [
        1.1506240609894633e-15,
        -7.006492321624085e-45,
        3.923635700109488e-44
      ]
    },
    {
      "matrix": [
        100.0,
        -1.4830585018155022e-28,
        1.2621774483536191e-28,
        0.0,
        1.2621774483537583e-28,
        -1.9256648288522916e-12,
        -100.00000000001329,
        0.0,
        1.4830585018157235e-28,
        100.00000000001329,
        -1.9256648288522916e-12,
        0.0,
        -2.117582368135751e-21,
        1.6946423026409774e-43,
        -9.300811728644225e-37,
        1.0
      ],
      "name": "Object_29"
    },
    {
      "mesh": 0,
      "name": "Object_30",
      "skin": 0
    },
    {
      "mesh": 1,
      "name": "Object_31",
      "skin": 0
    }
  ],
  "samplers": [
    {
      "magFilter": 9729,
      "minFilter": 9987,
      "wrapS": 10497,
      "wrapT": 10497
    }
  ],
  "scene": 0,
  "scenes": [
    {
      "name": "Sketchfab_Scene",
      "nodes": [
        0
      ]
    }
  ],
  "skins": [
    {
      "inverseBindMatrices": 9,
      "joints": [
        5,
        6,
        7,
        8,
        9,
        10,
        11,
        12,
        13,
        14,
        15,
        16,
        17,
        18,
        19,
        20,
        21,
        22,
        23,
        24,
        25,
        26,
        27,
        28
      ],
      "skeleton": 5
    }
  ],
  "textures": [
    {
      "sampler": 0,
      "source": 0
    },
    {
      "sampler": 0,
      "source": 1
    },
    {
      "sampler": 0,
      "source": 2
    }
  ]
}
